{"title":"Savannah.2013.WEBrip Xvid Ac3-MiLLENiUM","uid":8751579,"size":1749752153,"categoryP":"video","categoryS":"movies","magnet":"?xt=urn:btih:75bae483a5856a7b2b52514b08140f3b9a4216ac&amp;dn=Savannah.2013.WEBrip+Xvid+Ac3-MiLLENiUM&amp;tr=udp%3A%2F%2Ftracker.openbittorrent.com%3A80&amp;tr=udp%3A%2F%2Fopen.demonii.com%3A1337&amp;tr=udp%3A%2F%2Ftracker.coppersurfer.tk%3A6969&amp;tr=udp%3A%2F%2Fexodus.desync.com%3A6969","seeders":1,"leechers":0,"uploader":"R0thschild","files":5,"time":1375044557,"description":"              ***********************************************\n\n                PublicHash - Largest Bittorrent Community\n      \n                         &lt;a href=&quot; http://publichash.com/&quot; rel=&quot;nofollow&quot; target=&quot;_NEW&quot;&gt; http://publichash.com/&lt;/a&gt;\n\n          Crystal Clean files - Fast Speed! No Virus! No Fake! Enjoy!\n    \n              ***********************************************\nSavannah (2013)\n101 min  -  Drama | Family | History  -  23 August 2013 (USA)\nNot yet released\n(voting begins after release)\n\nSAVANNAH is the true story of Ward Allen, a romantic and bombastic character who rejects his plantation heritage for the freedom of life on a river. Ward navigates the change of early 20th century America on the wrong side of the law and society, his loyal friend, a freed slave named Christmas Moultrie, at his side. Master of Shakespeare, and the shotgun that provides Savannah's markets with fowl, Ward fights for his rights as a hunter. His charisma and eloquent rhetoric win the heart of a society woman who defies her father to marry him. An elderly Moultrie tells the story of life on the river with his friend to a little boy, who passes the legendary Ward Allen down to the next generation.\n\nDirector: Annette Haywood-Carter\nWriters: Ken Carter, Annette Haywood-Carter\n\nScreens: &lt;a href=&quot;\nhttp://imgsure.com/?p=463698&quot; rel=&quot;nofollow&quot; target=&quot;_NEW&quot;&gt;\nhttp://imgsure.com/?p=463698&lt;/a&gt; &lt;a href=&quot;\nhttp://imgsure.com/?p=169486&quot; rel=&quot;nofollow&quot; target=&quot;_NEW&quot;&gt;\nhttp://imgsure.com/?p=169486&lt;/a&gt;\n\nGeneral\n\nComplete name                            : Savannah.2013.WEBrip Xvid Ac3-MiLLENiUM.avi\nsource                                   : 720p WEBDL [thanks]\nFormat                                   : AVI\nFormat/Info                              : Audio Video Interleave\nFile size                                : 1.60 GiB\nDuration                                 : 1h 49mn\nOverall bit rate                         : 2 089 Kbps\nWriting application                      : VirtualDubMod 1.5.10.2 (build 2540/release)\nWriting library                          : VirtualDubMod build 2540/release\n\nVideo\nID                                       : 0\nFormat                                   : MPEG-4 Visual\nFormat profile                           : Advanced Simple@L5\nFormat settings, BVOP                    : 2\nFormat settings, QPel                    : No\nFormat settings, GMC                     : No warppoints\nFormat settings, Matrix                  : Default (H.263)\nMuxing mode                              : Packed bitstream\nCodec ID                                 : XVID\nCodec ID/Hint                            : XviD\nDuration                                 : 1h 49mn\nBit rate                                 : 1 695 Kbps\nWidth                                    : 720 pixels\nHeight                                   : 304 pixels\nDisplay aspect ratio                     : 2.35:1\nFrame rate                               : 23.976 fps\nColor space                              : YUV\nChroma subsampling                       : 4:2:0\nBit depth                                : 8 bits\nScan type                                : Progressive\nCompression mode                         : Lossy\nBits/(Pixel*Frame)                       : 0.323\nStream size                              : 1.30 GiB (81%)\nWriting library                          : XviD 64\n\nAudio\nID                                       : 1\nFormat                                   : AC-3\nFormat/Info                              : Audio Coding 3\nMode extension                           : CM (complete main)\nCodec ID                                 : 2000\nDuration                                 : 1h 49mn\nBit rate mode                            : Constant\nBit rate                                 : 384 Kbps\nChannel(s)                               : 6 channels\nChannel positions                        : Front: L C R, Side: L R, LFE\nSampling rate                            : 48.0 KHz\nBit depth                                : 16 bits\nCompression mode                         : Lossy\nStream size                              : 301 MiB (18%)\nAlignment                                : Split accross interleaves\nInterleave, duration                     : 42 ms (1.00 video frame)\nInterleave, preload duration             : 500 ms\n\n\nIMDB: http://www.imdb.com/title/tt1797487/","torrent":{"xt":"urn:btih:75bae483a5856a7b2b52514b08140f3b9a4216ac","amp;dn":"Savannah.2013.WEBrip+Xvid+Ac3-MiLLENiUM","amp;tr":["udp%3A%2F%2Ftracker.openbittorrent.com%3A80","udp%3A%2F%2Fopen.demonii.com%3A1337","udp%3A%2F%2Ftracker.coppersurfer.tk%3A6969","udp%3A%2F%2Fexodus.desync.com%3A6969"],"infoHash":"75bae483a5856a7b2b52514b08140f3b9a4216ac","infoHashBuffer":{"type":"Buffer","data":[117,186,228,131,165,133,106,123,43,82,81,75,8,20,15,59,154,66,22,172]},"announce":[],"urlList":[]}}